<svg xmlns="http://www.w3.org/2000/svg" viewBox="0 0 600 360">
  <defs>
    <linearGradient id="g3" x1="0" y1="0" x2="1" y2="1">
      <stop offset="0%" stop-color="#1a1040"/>
      <stop offset="100%" stop-color="#2D1B69"/>
    </linearGradient>
    <linearGradient id="gear3" x1="0" y1="0" x2="1" y2="1">
      <stop offset="0%" stop-color="#7C3AED"/>
      <stop offset="100%" stop-color="#4F46E5"/>
    </linearGradient>
  </defs>
  <rect width="600" height="360" fill="url(#g3)"/>
  <!-- BG dots -->
  <circle cx="50" cy="50" r="60" fill="rgba(124,58,237,0.08)"/>
  <circle cx="550" cy="310" r="80" fill="rgba(99,102,241,0.08)"/>
  <!-- Big gear -->
  <circle cx="220" cy="185" r="88" fill="none" stroke="#7C3AED" stroke-width="14" opacity="0.5"/>
  <circle cx="220" cy="185" r="55" fill="none" stroke="#7C3AED" stroke-width="8" opacity="0.4"/>
  <circle cx="220" cy="185" r="24" fill="url(#gear3)" opacity="0.7"/>
  <!-- Gear teeth big -->
  <rect x="210" y="86" width="20" height="26" rx="4" fill="#7C3AED" opacity="0.6"/>
  <rect x="210" y="258" width="20" height="26" rx="4" fill="#7C3AED" opacity="0.6"/>
  <rect x="121" y="175" width="26" height="20" rx="4" fill="#7C3AED" opacity="0.6"/>
  <rect x="293" y="175" width="26" height="20" rx="4" fill="#7C3AED" opacity="0.6"/>
  <rect x="148" y="112" width="20" height="26" rx="4" fill="#7C3AED" opacity="0.5" transform="rotate(45,158,125)"/>
  <rect x="272" y="112" width="20" height="26" rx="4" fill="#7C3AED" opacity="0.5" transform="rotate(-45,282,125)"/>
  <rect x="148" y="232" width="20" height="26" rx="4" fill="#7C3AED" opacity="0.5" transform="rotate(-45,158,245)"/>
  <rect x="272" y="232" width="20" height="26" rx="4" fill="#7C3AED" opacity="0.5" transform="rotate(45,282,245)"/>
  <!-- Small gear -->
  <circle cx="390" cy="140" r="58" fill="none" stroke="#818CF8" stroke-width="10" opacity="0.5"/>
  <circle cx="390" cy="140" r="36" fill="none" stroke="#818CF8" stroke-width="6" opacity="0.4"/>
  <circle cx="390" cy="140" r="16" fill="#4F46E5" opacity="0.7"/>
  <rect x="382" y="74" width="16" height="20" rx="3" fill="#818CF8" opacity="0.6"/>
  <rect x="382" y="186" width="16" height="20" rx="3" fill="#818CF8" opacity="0.6"/>
  <rect x="326" y="132" width="20" height="16" rx="3" fill="#818CF8" opacity="0.6"/>
  <rect x="444" y="132" width="20" height="16" rx="3" fill="#818CF8" opacity="0.6"/>
  <!-- Connector rod -->
  <rect x="240" y="178" width="150" height="10" rx="5" fill="#6D28D9" opacity="0.5"/>
  <!-- Small third gear -->
  <circle cx="460" cy="260" r="40" fill="none" stroke="#A78BFA" stroke-width="7" opacity="0.4"/>
  <circle cx="460" cy="260" r="18" fill="#5B21B6" opacity="0.5"/>
  <!-- Label -->
  <rect x="160" y="300" width="280" height="36" rx="18" fill="rgba(0,0,0,0.45)"/>
  <text x="300" y="323" text-anchor="middle" font-family="Arial,sans-serif" font-size="15" font-weight="bold" fill="white" opacity="0.95">ماشین‌آلات</text>
</svg>