<svg xmlns="http://www.w3.org/2000/svg" viewBox="0 0 600 360">
  <defs>
    <linearGradient id="g7" x1="0" y1="0" x2="0" y2="1">
      <stop offset="0%" stop-color="#0F2744"/>
      <stop offset="100%" stop-color="#1B4080"/>
    </linearGradient>
  </defs>
  <rect width="600" height="360" fill="url(#g7)"/>
  <!-- Stars -->
  <circle cx="50" cy="30" r="1.5" fill="white" opacity="0.4"/>
  <circle cx="120" cy="18" r="1" fill="white" opacity="0.3"/>
  <circle cx="480" cy="25" r="1.5" fill="white" opacity="0.4"/>
  <circle cx="550" cy="40" r="1" fill="white" opacity="0.3"/>
  <!-- Ground -->
  <rect x="0" y="290" width="600" height="70" fill="#0d1f0d" opacity="0.5"/>
  <!-- Chimneys -->
  <rect x="90" y="100" width="28" height="120" rx="4" fill="#1a3a5c"/>
  <rect x="150" y="80" width="28" height="140" rx="4" fill="#1a3a5c"/>
  <rect x="430" y="90" width="28" height="130" rx="4" fill="#1a3a5c"/>
  <rect x="490" y="110" width="24" height="110" rx="4" fill="#1a3a5c"/>
  <!-- Smoke -->
  <ellipse cx="104" cy="95" rx="12" ry="8" fill="rgba(200,200,220,0.15)"/>
  <ellipse cx="110" cy="80" rx="10" ry="7" fill="rgba(200,200,220,0.10)"/>
  <ellipse cx="164" cy="75" rx="13" ry="8" fill="rgba(200,200,220,0.15)"/>
  <ellipse cx="170" cy="60" rx="11" ry="7" fill="rgba(200,200,220,0.10)"/>
  <ellipse cx="444" cy="85" rx="12" ry="8" fill="rgba(200,200,220,0.15)"/>
  <ellipse cx="504" cy="105" rx="11" ry="7" fill="rgba(200,200,220,0.12)"/>
  <!-- Main building -->
  <rect x="60" y="200" width="480" height="90" rx="4" fill="#1E4A8A" opacity="0.9"/>
  <rect x="60" y="196" width="480" height="8" rx="2" fill="#2563EB" opacity="0.7"/>
  <!-- Windows row -->
  <rect x="90" y="215" width="40" height="30" rx="4" fill="#60A5FA" opacity="0.5"/>
  <rect x="150" y="215" width="40" height="30" rx="4" fill="#60A5FA" opacity="0.5"/>
  <rect x="210" y="215" width="40" height="30" rx="4" fill="#60A5FA" opacity="0.5"/>
  <rect x="320" y="215" width="40" height="30" rx="4" fill="#60A5FA" opacity="0.5"/>
  <rect x="380" y="215" width="40" height="30" rx="4" fill="#60A5FA" opacity="0.5"/>
  <rect x="440" y="215" width="40" height="30" rx="4" fill="#60A5FA" opacity="0.5"/>
  <!-- Door -->
  <rect x="268" y="240" width="64" height="50" rx="4" fill="#1E40AF" opacity="0.8"/>
  <!-- Roof structure -->
  <polygon points="60,200 300,140 540,200" fill="#153974" opacity="0.8"/>
  <!-- Glow windows -->
  <rect x="90" y="215" width="40" height="30" rx="4" fill="rgba(96,165,250,0.2)"/>
  <rect x="150" y="215" width="40" height="30" rx="4" fill="rgba(96,165,250,0.15)"/>
  <!-- Label -->
  <rect x="170" y="305" width="260" height="36" rx="18" fill="rgba(0,0,0,0.4)"/>
  <text x="300" y="328" text-anchor="middle" font-family="Arial,sans-serif" font-size="15" font-weight="bold" fill="white" opacity="0.95">کارخانه</text>
</svg>